<?xml version="1.0" encoding="utf-8"?>
<!-- Generator: Adobe Illustrator 16.0.0, SVG Export Plug-In . SVG Version: 6.00 Build 0)  -->
<!DOCTYPE svg PUBLIC "-//W3C//DTD SVG 1.1//EN" "http://www.w3.org/Graphics/SVG/1.1/DTD/svg11.dtd">
<svg version="1.1" id="Ebene_1" xmlns="http://www.w3.org/2000/svg" xmlns:xlink="http://www.w3.org/1999/xlink" x="0px" y="0px"
	 width="306.68px" height="76.25px" viewBox="0 0 306.68 76.25" enable-background="new 0 0 306.68 76.25" xml:space="preserve">
<path fill="#FFFFFF" d="M112.025,32.306h3.982v9.131c0,0.32-0.088,0.621-0.266,0.904c-1.77,2.689-4.123,4.787-7.061,6.291
	c-2.939,1.506-6.143,2.256-9.611,2.256c-5.521,0-10.248-1.998-14.176-5.998c-3.93-4-5.894-8.832-5.894-14.496
	c0-5.628,1.955-10.38,5.866-14.256c3.91-3.876,8.646-5.814,14.203-5.814c2.973,0,5.779,0.629,8.416,1.885
	c2.637,1.257,4.893,3,6.77,5.23l-2.92,2.655c-1.486-1.84-3.301-3.292-5.443-4.354c-2.141-1.062-4.416-1.593-6.822-1.593
	c-4.459,0-8.256,1.566-11.389,4.699c-3.133,3.132-4.717,6.982-4.752,11.548c0.035,4.566,1.619,8.478,4.752,11.734
	c3.133,3.258,6.93,4.885,11.389,4.885c2.725,0,5.211-0.539,7.461-1.619c2.246-1.08,4.078-2.646,5.494-4.699V32.306z"/>
<path fill="#FFFFFF" d="M155.445,50.305L145.25,35.651h-12.318v14.653h-3.982V13.298c0-0.637,0.221-1.176,0.664-1.619
	c0.442-0.442,1-0.664,1.672-0.664h16.035c3.434,0,6.372,1.248,8.814,3.744c2.443,2.495,3.664,5.478,3.664,8.946
	c0,2.974-0.965,5.549-2.895,7.726s-4.363,3.513-7.3,4.009l10.353,14.866H155.445z M132.932,14.997v16.831h14.389
	c2.407,0,4.425-0.787,6.053-2.362c1.628-1.575,2.443-3.496,2.443-5.761c0-2.371-0.832-4.415-2.496-6.132
	c-1.664-1.717-3.664-2.575-6-2.575H132.932z"/>
<path fill="#FFFFFF" d="M204.281,50.305h-4.514L185.91,17.386l-14.07,32.918h-4.461l16.461-38.546
	c0.459-0.956,1.148-1.434,2.07-1.434c0.99,0,1.68,0.478,2.07,1.434L204.281,50.305z"/>
<path fill="#FFFFFF" d="M240.32,11.015v3.982h-14.602v35.308h-3.982V14.997h-14.602v-3.982H240.32z"/>
<path fill="#FFFFFF" d="M288.725,50.836c-5.982,0-11.521-1.273-16.619-3.822l1.699-3.664c4.531,2.336,9.504,3.504,14.92,3.504
	c4.248,0,7.627-0.697,10.141-2.096s3.771-3.195,3.771-5.391c0-0.813-0.133-1.557-0.398-2.229c-0.266-0.672-0.604-1.238-1.01-1.699
	c-0.406-0.459-0.975-0.884-1.699-1.274c-0.725-0.389-1.416-0.699-2.07-0.929c-0.656-0.23-1.514-0.442-2.574-0.637
	c-1.063-0.194-1.975-0.336-2.736-0.425c-0.76-0.088-1.742-0.203-2.945-0.345c-4.992-0.531-8.426-1.115-10.301-1.752
	c-4.178-1.487-6.266-4.282-6.266-8.389c0-3.433,1.594-6.176,4.779-8.23c3.186-2.052,7.326-3.079,12.424-3.079
	c5.273,0,10.266,1.009,14.973,3.026l-1.539,3.61c-4.283-1.84-8.762-2.761-13.434-2.761c-4.035,0-7.23,0.646-9.584,1.938
	c-2.354,1.292-3.531,3.124-3.531,5.495c0,0.992,0.248,1.85,0.744,2.575c0.494,0.726,1.018,1.284,1.566,1.672
	c0.549,0.39,1.469,0.735,2.76,1.036c1.293,0.301,2.293,0.496,3,0.584c0.709,0.089,1.912,0.222,3.611,0.398
	c0.459,0.036,0.797,0.072,1.008,0.106c1.664,0.178,3.055,0.345,4.168,0.504c1.115,0.159,2.416,0.407,3.904,0.743
	c1.486,0.337,2.707,0.762,3.662,1.274c0.957,0.514,1.895,1.16,2.814,1.938c0.92,0.779,1.602,1.744,2.045,2.894
	c0.441,1.151,0.664,2.469,0.664,3.955c0,3.398-1.674,6.16-5.018,8.283C298.309,49.775,293.998,50.836,288.725,50.836z"/>
<path fill="#FFFFFF" d="M254.449,11.017h3.971v39.288h-3.971V11.017z"/>
<path fill="#FFFFFF" d="M46.029,7.314c2.014,0,3.646-1.638,3.646-3.657S48.042,0,46.029,0c-2.013,0-3.646,1.637-3.646,3.657
	S44.016,7.314,46.029,7.314z"/>
<path fill="#FFFFFF" d="M50.13,58.967c2.014,0,3.646-1.637,3.646-3.656s-1.632-3.656-3.646-3.656c-2.013,0-3.646,1.637-3.646,3.656
	S48.117,58.967,50.13,58.967z"/>
<path fill="#FFFFFF" d="M47.07,16.456c1.69,0,3.06-1.374,3.06-3.069c0-1.695-1.37-3.069-3.06-3.069c-1.689,0-3.06,1.374-3.06,3.069
	C44.011,15.082,45.381,16.456,47.07,16.456z"/>
<path fill="#FFFFFF" d="M55.208,17.631c1.69,0,3.06-1.374,3.06-3.069c0-1.695-1.37-3.069-3.06-3.069s-3.06,1.374-3.06,3.069
	C52.148,16.257,53.519,17.631,55.208,17.631z"/>
<path fill="#FFFFFF" d="M46.029,24.227c1.438,0,2.604-1.169,2.604-2.612c0-1.442-1.166-2.612-2.604-2.612
	c-1.438,0-2.604,1.169-2.604,2.612C43.425,23.058,44.591,24.227,46.029,24.227z"/>
<path fill="#FFFFFF" d="M54.167,25.337c1.438,0,2.604-1.17,2.604-2.612s-1.166-2.612-2.604-2.612s-2.604,1.17-2.604,2.612
	S52.729,25.337,54.167,25.337z"/>
<path fill="#FFFFFF" d="M60.677,27.884c1.438,0,2.604-1.169,2.604-2.612c0-1.443-1.166-2.612-2.604-2.612
	c-1.438,0-2.604,1.169-2.604,2.612C58.073,26.714,59.239,27.884,60.677,27.884z"/>
<path fill="#FFFFFF" d="M51.758,31.606c1.259,0,2.279-1.023,2.279-2.285s-1.02-2.286-2.279-2.286c-1.258,0-2.278,1.023-2.278,2.286
	S50.5,31.606,51.758,31.606z"/>
<path fill="#FFFFFF" d="M43.62,30.496c1.258,0,2.278-1.023,2.278-2.286s-1.02-2.286-2.278-2.286c-1.259,0-2.279,1.023-2.279,2.286
	S42.361,30.496,43.62,30.496z"/>
<path fill="#FFFFFF" d="M58.333,34.153c1.259,0,2.279-1.023,2.279-2.286c0-1.262-1.02-2.285-2.279-2.285
	c-1.258,0-2.278,1.023-2.278,2.285C56.055,33.13,57.075,34.153,58.333,34.153z"/>
<path fill="#FFFFFF" d="M48.503,36.374c1.079,0,1.953-0.877,1.953-1.959s-0.875-1.959-1.953-1.959s-1.953,0.877-1.953,1.959
	S47.424,36.374,48.503,36.374z"/>
<path fill="#FFFFFF" d="M55.078,38.855c1.079,0,1.954-0.877,1.954-1.959s-0.875-1.959-1.954-1.959c-1.079,0-1.953,0.877-1.953,1.959
	S54,38.855,55.078,38.855z"/>
<path fill="#FFFFFF" d="M40.43,35.198c1.079,0,1.953-0.877,1.953-1.959s-0.874-1.959-1.953-1.959c-1.079,0-1.953,0.877-1.953,1.959
	S39.351,35.198,40.43,35.198z"/>
<path fill="#FFFFFF" d="M44.922,39.572c0.899,0,1.627-0.73,1.627-1.632c0-0.901-0.729-1.632-1.627-1.632s-1.627,0.731-1.627,1.632
	C43.295,38.842,44.023,39.572,44.922,39.572z"/>
<path fill="#FFFFFF" d="M47.722,44.078c0.791,0,1.432-0.643,1.432-1.436s-0.641-1.438-1.432-1.438s-1.433,0.645-1.433,1.438
	S46.931,44.078,47.722,44.078z"/>
<path fill="#FFFFFF" d="M44.271,44.992c0.647,0,1.172-0.525,1.172-1.174c0-0.65-0.525-1.176-1.172-1.176s-1.172,0.525-1.172,1.176
	C43.099,44.467,43.624,44.992,44.271,44.992z"/>
<path fill="#FFFFFF" d="M41.211,41.598c0.791,0,1.432-0.645,1.432-1.438s-0.641-1.436-1.432-1.436s-1.433,0.643-1.433,1.436
	S40.42,41.598,41.211,41.598z"/>
<path fill="#FFFFFF" d="M36.784,38.463c0.899,0,1.627-0.731,1.627-1.632c0-0.902-0.729-1.633-1.627-1.633s-1.627,0.731-1.627,1.633
	C35.157,37.732,35.885,38.463,36.784,38.463z"/>
<path fill="#FFFFFF" d="M36.719,26.186c0.899,0,1.627-0.731,1.627-1.632c0-0.902-0.729-1.633-1.627-1.633s-1.628,0.731-1.628,1.633
	C35.091,25.455,35.82,26.186,36.719,26.186z"/>
<path fill="#FFFFFF" d="M37.435,20.439c0.791,0,1.433-0.643,1.433-1.437s-0.642-1.437-1.433-1.437s-1.432,0.643-1.432,1.437
	S36.644,20.439,37.435,20.439z"/>
<path fill="#FFFFFF" d="M38.998,15.738c0.647,0,1.172-0.526,1.172-1.175c0-0.649-0.525-1.176-1.172-1.176
	c-0.647,0-1.172,0.526-1.172,1.176C37.826,15.211,38.351,15.738,38.998,15.738z"/>
<path fill="#FFFFFF" d="M36.263,13.518c0.791,0,1.433-0.643,1.433-1.437s-0.642-1.437-1.433-1.437s-1.432,0.644-1.432,1.437
	S35.472,13.518,36.263,13.518z"/>
<path fill="#FFFFFF" d="M51.433,42.055c0.899,0,1.627-0.73,1.627-1.633s-0.729-1.632-1.627-1.632s-1.628,0.73-1.628,1.632
	S50.534,42.055,51.433,42.055z"/>
<path fill="#FFFFFF" d="M32.552,11.624c0.899,0,1.627-0.731,1.627-1.632c0-0.902-0.729-1.633-1.627-1.633s-1.627,0.731-1.627,1.633
	C30.925,10.893,31.653,11.624,32.552,11.624z"/>
<path fill="#FFFFFF" d="M33.659,18.546c0.899,0,1.627-0.731,1.627-1.633c0-0.901-0.729-1.632-1.627-1.632s-1.627,0.731-1.627,1.632
	C32.032,17.815,32.76,18.546,33.659,18.546z"/>
<path fill="#FFFFFF" d="M31.836,25.142c1.079,0,1.953-0.877,1.953-1.959s-0.875-1.959-1.953-1.959c-1.079,0-1.954,0.877-1.954,1.959
	S30.757,25.142,31.836,25.142z"/>
<path fill="#FFFFFF" d="M25.912,25.142c1.258,0,2.279-1.023,2.279-2.286c0-1.262-1.021-2.285-2.279-2.285s-2.279,1.023-2.279,2.285
	C23.633,24.118,24.653,25.142,25.912,25.142z"/>
<path fill="#FFFFFF" d="M19.011,26.708c1.438,0,2.604-1.169,2.604-2.612c0-1.443-1.166-2.612-2.604-2.612
	c-1.438,0-2.604,1.169-2.604,2.612C16.406,25.539,17.572,26.708,19.011,26.708z"/>
<path fill="#FFFFFF" d="M11.458,30.431c1.69,0,3.06-1.374,3.06-3.069c0-1.695-1.37-3.069-3.06-3.069s-3.06,1.374-3.06,3.069
	C8.399,29.057,9.769,30.431,11.458,30.431z"/>
<path fill="#FFFFFF" d="M3.646,36.7c2.014,0,3.646-1.637,3.646-3.657c0-2.02-1.632-3.657-3.646-3.657S0,31.023,0,33.043
	C0,35.063,1.632,36.7,3.646,36.7z"/>
<path fill="#FFFFFF" d="M8.398,22.791c1.69,0,3.06-1.374,3.06-3.069c0-1.695-1.37-3.069-3.06-3.069c-1.689,0-3.06,1.375-3.06,3.069
	C5.339,21.417,6.709,22.791,8.398,22.791z"/>
<path fill="#FFFFFF" d="M15.951,19.068c1.438,0,2.604-1.169,2.604-2.612c0-1.442-1.166-2.612-2.604-2.612
	c-1.438,0-2.604,1.17-2.604,2.612C13.347,17.899,14.513,19.068,15.951,19.068z"/>
<path fill="#FFFFFF" d="M14.844,12.146c1.438,0,2.604-1.169,2.604-2.612c0-1.443-1.166-2.612-2.604-2.612
	c-1.438,0-2.604,1.169-2.604,2.612C12.24,10.977,13.406,12.146,14.844,12.146z"/>
<path fill="#FFFFFF" d="M21.745,10.579c1.258,0,2.278-1.023,2.278-2.286c0-1.263-1.02-2.286-2.278-2.286
	c-1.259,0-2.279,1.023-2.279,2.286C19.466,9.556,20.486,10.579,21.745,10.579z"/>
<path fill="#FFFFFF" d="M27.669,10.579c1.079,0,1.953-0.877,1.953-1.959c0-1.082-0.875-1.959-1.953-1.959s-1.953,0.877-1.953,1.959
	C25.716,9.702,26.591,10.579,27.669,10.579z"/>
<path fill="#FFFFFF" d="M28.776,17.501c1.079,0,1.953-0.877,1.953-1.959c0-1.082-0.875-1.959-1.953-1.959s-1.953,0.877-1.953,1.959
	C26.823,16.624,27.698,17.501,28.776,17.501z"/>
<path fill="#FFFFFF" d="M22.852,17.566c1.259,0,2.279-1.023,2.279-2.286s-1.02-2.286-2.279-2.286c-1.258,0-2.278,1.023-2.278,2.286
	S21.593,17.566,22.852,17.566z"/>
<path fill="#FFFFFF" d="M16.407,34.937c0.647,0,1.171-0.526,1.171-1.175c0-0.649-0.524-1.176-1.171-1.176
	c-0.647,0-1.172,0.526-1.172,1.176C15.235,34.41,15.759,34.937,16.407,34.937z"/>
<path fill="#FFFFFF" d="M21.094,34.349c0.791,0,1.432-0.644,1.432-1.437s-0.641-1.437-1.432-1.437s-1.433,0.643-1.433,1.437
	S20.303,34.349,21.094,34.349z"/>
<path fill="#FFFFFF" d="M26.237,32.39c0.899,0,1.627-0.731,1.627-1.632c0-0.902-0.729-1.632-1.627-1.632s-1.628,0.73-1.628,1.632
	C24.609,31.659,25.338,32.39,26.237,32.39z"/>
<path fill="#FFFFFF" d="M27.474,37.614c1.079,0,1.953-0.877,1.953-1.959s-0.875-1.959-1.953-1.959s-1.953,0.877-1.953,1.959
	S26.396,37.614,27.474,37.614z"/>
<path fill="#FFFFFF" d="M21.224,38.855c0.899,0,1.627-0.731,1.627-1.633c0-0.901-0.729-1.632-1.627-1.632s-1.627,0.731-1.627,1.632
	C19.597,38.124,20.325,38.855,21.224,38.855z"/>
<path fill="#FFFFFF" d="M15.69,38.79c0.791,0,1.432-0.643,1.432-1.437s-0.641-1.437-1.432-1.437s-1.432,0.644-1.432,1.437
	S14.899,38.79,15.69,38.79z"/>
<path fill="#FFFFFF" d="M15.755,43.295c0.899,0,1.627-0.73,1.627-1.633c0-0.9-0.729-1.633-1.627-1.633s-1.627,0.732-1.627,1.633
	C14.128,42.564,14.856,43.295,15.755,43.295z"/>
<path fill="#FFFFFF" d="M22.396,44.145c1.079,0,1.953-0.877,1.953-1.959s-0.875-1.959-1.953-1.959s-1.953,0.877-1.953,1.959
	S21.317,44.145,22.396,44.145z"/>
<path fill="#FFFFFF" d="M30.144,43.295c1.258,0,2.278-1.023,2.278-2.285s-1.02-2.286-2.278-2.286s-2.279,1.024-2.279,2.286
	S28.885,43.295,30.144,43.295z"/>
<path fill="#FFFFFF" d="M34.701,48.977c1.438,0,2.604-1.17,2.604-2.611c0-1.443-1.166-2.613-2.604-2.613
	c-1.438,0-2.604,1.17-2.604,2.613C32.097,47.807,33.263,48.977,34.701,48.977z"/>
<path fill="#FFFFFF" d="M25.13,49.76c1.258,0,2.279-1.023,2.279-2.285s-1.021-2.285-2.279-2.285s-2.279,1.023-2.279,2.285
	S23.872,49.76,25.13,49.76z"/>
<path fill="#FFFFFF" d="M19.727,54.201c1.258,0,2.278-1.023,2.278-2.287c0-1.262-1.02-2.285-2.278-2.285
	c-1.259,0-2.279,1.023-2.279,2.285C17.448,53.178,18.468,54.201,19.727,54.201z"/>
<path fill="#FFFFFF" d="M24.219,59.947c1.438,0,2.604-1.17,2.604-2.611c0-1.443-1.166-2.613-2.604-2.613
	c-1.438,0-2.604,1.17-2.604,2.613C21.615,58.777,22.781,59.947,24.219,59.947z"/>
<path fill="#FFFFFF" d="M36.198,60.992c1.69,0,3.06-1.375,3.06-3.07c0-1.693-1.37-3.068-3.06-3.068s-3.06,1.375-3.06,3.068
	C33.138,59.617,34.508,60.992,36.198,60.992z"/>
<path fill="#FFFFFF" d="M29.623,55.506c1.438,0,2.604-1.168,2.604-2.611s-1.166-2.611-2.604-2.611c-1.438,0-2.604,1.168-2.604,2.611
	S28.185,55.506,29.623,55.506z"/>
<path fill="#FFFFFF" d="M41.211,54.461c1.69,0,3.06-1.373,3.06-3.068s-1.37-3.068-3.06-3.068c-1.689,0-3.06,1.373-3.06,3.068
	S39.521,54.461,41.211,54.461z"/>
<path fill="#FFFFFF" d="M16.992,48.584c1.079,0,1.953-0.877,1.953-1.959s-0.874-1.959-1.953-1.959c-1.079,0-1.953,0.877-1.953,1.959
	S15.914,48.584,16.992,48.584z"/>
<g>
	<path fill="#FFFFFF" d="M254.313,68.453c0.77,0.289,1.396,0.77,1.877,1.443c0.482,0.674,0.723,1.432,0.723,2.271
		c0,1.127-0.393,2.09-1.176,2.889c-0.785,0.799-1.734,1.197-2.848,1.197h-7.225c-0.164,0-0.303-0.055-0.412-0.166
		c-0.111-0.109-0.166-0.24-0.166-0.393V61.539c0-0.152,0.055-0.283,0.166-0.393c0.109-0.109,0.248-0.166,0.412-0.166h6.584
		c1.115,0,2.064,0.393,2.848,1.178c0.785,0.783,1.178,1.727,1.178,2.826c0,0.73-0.176,1.4-0.527,2.014
		C255.395,67.609,254.918,68.094,254.313,68.453z M255.447,64.984c0-0.879-0.313-1.629-0.939-2.248s-1.379-0.93-2.26-0.93h-6.336
		v6.398h6.336c0.895,0,1.65-0.313,2.27-0.939C255.137,66.641,255.447,65.879,255.447,64.984z M252.889,75.428
		c0.879,0,1.633-0.32,2.26-0.959c0.625-0.641,0.938-1.406,0.938-2.301c0-0.881-0.309-1.625-0.928-2.23s-1.377-0.908-2.27-0.908
		h-6.977v6.398H252.889z"/>
	<path fill="#FFFFFF" d="M273.457,61.807h-10.711v6.398h10.092v0.824h-10.092v6.398h10.711v0.826h-10.959
		c-0.166,0-0.303-0.055-0.414-0.166c-0.109-0.109-0.164-0.24-0.164-0.393V61.539c0-0.152,0.055-0.283,0.164-0.393
		c0.111-0.109,0.248-0.166,0.414-0.166h10.959V61.807z"/>
	<path fill="#FFFFFF" d="M291.055,60.98v0.826h-5.984v14.447h-0.826V61.807h-5.984V60.98H291.055z"/>
	<path fill="#FFFFFF" d="M306.092,76.254h-0.949l-5.984-14.221l-6.088,14.221h-0.93l6.48-15.189
		c0.125-0.262,0.303-0.393,0.537-0.393c0.262,0,0.439,0.131,0.537,0.393L306.092,76.254z"/>
</g>
</svg>
